<svg width="25" height="67" viewBox="0 0 25 67" fill="none" xmlns="http://www.w3.org/2000/svg">
<path d="M17.9499 1.28847C18.5854 2.06233 19.2601 3.04427 19.9739 4.2343C20.7196 5.42043 21.4184 6.64269 22.0704 7.90109C22.7224 9.15948 23.2286 10.3748 23.589 11.5472L24.1931 53.4377C23.7871 54.7036 23.2575 56.1062 22.6043 57.6456C21.9511 59.185 21.2479 60.6696 20.4948 62.0995C19.7396 63.4689 19.0102 64.6527 18.3065 65.6509L9.39698 66.7386C8.88193 66.6798 8.19487 66.2772 7.33581 65.5306C6.47675 64.784 5.57959 63.8597 4.64433 62.7575C3.70701 61.5948 2.88044 60.3881 2.1646 59.1375C1.44671 57.8263 0.973465 56.6373 0.744861 55.5705L0.659912 14.8027C0.944306 13.734 1.35027 12.4681 1.8778 11.0049C2.43521 9.47722 3.04258 8.00427 3.6999 6.58603C4.35517 5.10722 4.95479 3.87848 5.49877 2.8998C7.80116 1.76727 9.97425 1.07624 12.018 0.826723C14.0917 0.512743 16.069 0.666658 17.9499 1.28847ZM17.158 11.9674C15.5706 11.4922 13.8518 11.398 12.0017 11.6847C10.1836 11.9675 8.5075 12.6586 6.97358 13.7582C6.57364 17.0911 6.29005 21.0181 6.12283 25.539C5.98548 29.9955 5.96093 34.4686 6.04917 38.9583L17.8343 17.7234C17.7355 16.7015 17.6217 15.7119 17.493 14.7545C17.3942 13.7327 17.2825 12.8037 17.158 11.9674ZM7.40286 57.5857L18.1144 52.9026C18.4144 49.4602 18.5842 45.4863 18.6237 40.981C18.693 36.4112 18.6357 31.8873 18.4516 27.4092L6.48723 49.031C6.60866 50.719 6.74194 52.284 6.88707 53.7259C7.06209 55.1034 7.23402 56.39 7.40286 57.5857Z" fill="black"/>
</svg>
