<svg width="39" height="40" viewBox="0 0 39 40" fill="none" xmlns="http://www.w3.org/2000/svg">
<path d="M37.1475 20.094H39V29.3808H37.1475V20.094ZM37.1475 8.9424H39V14.5243H37.1475V8.9424ZM35.2828 29.3808H37.1475V31.2333H35.2828V29.3808ZM35.2828 12.6596H33.4303V14.5243H31.5778V16.3768H29.7131V18.2293H27.8606V20.094H26.0081V21.9465H27.8606V23.799H29.7131V21.9465H31.5778V20.094H33.4303V18.2293H35.2828V16.3768H37.1475V14.5243H35.2828V12.6596ZM31.5778 7.0899H37.1475V8.9424H31.5778V7.0899ZM3.71716 31.2333H35.2828V33.0858H3.71716V31.2333ZM26.0081 7.0899H29.7131V8.9424H26.0081V7.0899ZM22.2909 23.799V18.2293H20.4262V25.6637H27.8606V23.799H22.2909Z" fill="#C50602"/>
<path d="M24.1434 20.094H26.0081V18.2293H27.8606V16.3768H29.7131V14.5243H31.5778V12.6596H33.4303V10.8071H31.5778V8.94244H29.7131V10.8071H27.8606V12.6596H26.0081V14.5243H24.1434V16.3768H22.2909V18.2293H24.1434V20.094ZM24.1434 8.94244H26.0081V10.8071H24.1434V8.94244ZM22.2909 10.8071H24.1434V12.6596H22.2909V10.8071ZM18.5737 25.6637H20.4263V27.5162H18.5737V25.6637ZM13.0041 25.6637H14.8566V27.5162H13.0041V25.6637ZM7.43437 25.6637H9.28687V27.5162H7.43437V25.6637ZM3.71719 14.5243H20.4263V16.3768H3.71719V14.5243ZM1.86469 29.3809H3.71719V31.2334H1.86469V29.3809ZM1.86469 16.3768H3.71719V18.2293H1.86469V16.3768ZM0 18.2293H1.86469V29.3809H0V18.2293Z" fill="#C50602"/>
</svg>
